<svg xmlns="http://www.w3.org/2000/svg" width="157" height="79" viewBox="0 0 157 79">
    <defs>
        <radialGradient id="a" cx="42.072%" cy="34.171%" r="143.386%" fx="42.072%" fy="34.171%" gradientTransform="scale(.98113 1) rotate(59.771 .425 .349)">
            <stop offset="0%" stop-color="#D9EBFF"/>
            <stop offset="100%" stop-color="#1A7CFE"/>
        </radialGradient>
        <radialGradient id="b" cx="42.072%" cy="34.171%" r="144.238%" fx="42.072%" fy="34.171%" gradientTransform="scale(.95883 1) rotate(59.195 .43 .358)">
            <stop offset="0%" stop-color="#D9EBFF"/>
            <stop offset="100%" stop-color="#1A7CFE"/>
        </radialGradient>
        <filter id="c" width="185.7%" height="146.2%" x="-42.9%" y="-23.1%" filterUnits="objectBoundingBox">
            <feGaussianBlur in="SourceGraphic" stdDeviation="1"/>
        </filter>
        <filter id="d" width="200%" height="154.5%" x="-50%" y="-27.3%" filterUnits="objectBoundingBox">
            <feGaussianBlur in="SourceGraphic" stdDeviation="1"/>
        </filter>
        <filter id="e" width="195%" height="301.2%" x="-47.5%" y="-100.6%" filterUnits="objectBoundingBox">
            <feGaussianBlur in="SourceGraphic" stdDeviation="1.5"/>
        </filter>
        <filter id="f" width="228.6%" height="400%" x="-64.3%" y="-150%" filterUnits="objectBoundingBox">
            <feGaussianBlur in="SourceGraphic" stdDeviation="1.5"/>
        </filter>
    </defs>
    <g fill="none" fill-rule="evenodd">
        <path fill="#197BFF" d="M25.564 26c-3.793 0-4.713 5.073-5.525 9.195-.813 4.122-1.3 6.341-4.226 7.452C12.888 43.756 2 44.549 2 49.305c0 4.757 7.15 7.293 9.913 9.036 2.763 1.745 3.088 5.074 3.088 6.5C15.001 66.27 12.888 78 18.74 78c5.85 0 9.588-5.475 11.538-6.859 1.95-1.385 6.175-1.47 9.426 0 3.25 1.468 7.963 3.372 10.238.677 2.275-2.696-.162-8.72-2.113-11.732-1.95-3.013-1.137-4.599 1.463-8.086s6.012-6.183 5.687-10.147C54.653 37.89 44.903 39 41.002 39c-4.874 0-6.663-13-15.438-13"/>
        <path fill="url(#a)" d="M23.564 23c-3.793 0-4.712 5.073-5.525 9.195-.813 4.122-1.3 6.341-4.226 7.452C10.888 40.756 0 41.549 0 46.305s7.15 7.293 9.913 9.036c2.763 1.745 3.088 5.074 3.088 6.5C13.001 63.27 10.888 75 16.74 75c5.85 0 9.588-5.475 11.539-6.859 1.95-1.385 6.174-1.47 9.425 0 3.25 1.468 7.963 3.371 10.238.677 2.275-2.696-.163-8.72-2.113-11.732-1.95-3.013-1.137-4.599 1.463-8.086s6.012-6.183 5.687-10.147C52.653 34.89 42.904 36 39.002 36c-4.875 0-6.663-13-15.438-13"/>
        <path fill="#FFF" stroke="#D6D8DA" d="M132.436 26c3.793 0 4.712 5.073 5.525 9.195.813 4.122 1.3 6.341 4.226 7.452C145.11 43.756 156 44.549 156 49.305c0 4.757-7.15 7.293-9.913 9.036-2.763 1.745-3.088 5.074-3.088 6.5 0 1.428 2.112 13.159-3.738 13.159s-9.588-5.475-11.539-6.859c-1.95-1.385-6.174-1.47-9.425 0-3.25 1.468-7.963 3.372-10.238.677-2.275-2.696.163-8.72 2.113-11.732 1.95-3.013 1.137-4.599-1.463-8.086s-6.012-6.183-5.687-10.147C103.347 37.89 113.096 39 116.998 39c4.875 0 6.662-13 15.438-13"/>
        <path fill="#197BFF" d="M45 32.24c0-4.75 3.993-6.176 12.459-7.126 8.465-.95 9.582-.634 11.5-5.068C70.874 15.611 73.748 5 79.5 5c5.75 0 8.784 10.136 10.701 13.62 1.917 3.484 2.237 5.068 11.34 6.334C110.646 26.222 114 28.598 114 32.24c0 3.643-7.826 8.87-10.222 11.245-2.396 2.376-4.632 4.434-1.598 15.996 2.236 9.344-2.235 11.877-5.909 10.77-3.674-1.11-12.618-7.603-16.771-7.603-4.153 0-15.812 10.78-20.125 7.846-4.312-2.936-1.437-13.39-.958-16.557.479-3.166 1.277-7.443-1.916-9.66C53.305 42.06 45 34.617 45 32.24"/>
        <path fill="url(#b)" d="M.129 27.844c0-4.794 4.019-6.232 12.54-7.19 8.522-.96 9.647-.64 11.577-5.114C26.176 11.064 29.069.357 34.857.357c5.789 0 8.843 10.228 10.772 13.744 1.93 3.516 2.252 5.113 11.416 6.391 9.164 1.28 12.54 3.677 12.54 7.352 0 3.676-7.877 8.95-10.29 11.347-2.411 2.397-4.661 4.474-1.607 16.14 2.25 9.43-2.25 11.986-5.949 10.867-3.698-1.118-12.702-7.67-16.882-7.67-4.18 0-15.917 10.878-20.258 7.916-4.341-2.962-1.447-13.51-.965-16.706.482-3.195 1.286-7.51-1.929-9.748C8.49 37.753.13 30.242.13 27.844" transform="translate(45)"/>
        <path fill="#FFF" fill-rule="nonzero" d="M75.59 9.086a1 1 0 0 1 1.82.828l-5 11a1 1 0 0 1-1.82-.828l5-11z" filter="url(#c)"/>
        <path fill="#FFF" fill-rule="nonzero" d="M22.272 28.934a.862.862 0 0 1 1.135-.42c.43.193.621.694.425 1.12l-4.285 9.307a.862.862 0 0 1-1.135.42.842.842 0 0 1-.425-1.12l4.285-9.307z" filter="url(#d)" transform="rotate(-10 20.91 33.937)"/>
        <path fill="#FFF" fill-rule="nonzero" d="M49.813 27.736l-.55-1.923 8.924-2.55.55 1.924z" filter="url(#e)" transform="rotate(3 54 25.5)"/>
        <path fill="#FFF" fill-rule="nonzero" d="M3.406 46L3 44.71 9.594 43 10 44.29z" filter="url(#f)" transform="rotate(-4 6.5 44.5)"/>
    </g>
</svg>
