<svg xmlns="http://www.w3.org/2000/svg" width="156" height="75" viewBox="0 0 156 75">
    <g fill="#FFF" fill-rule="evenodd" stroke="#D6D8DA">
        <path d="M24.564 22c-3.793 0-4.713 5.073-5.525 9.195-.813 4.122-1.3 6.341-4.226 7.452C11.888 39.756 1 40.549 1 45.305c0 4.757 7.15 7.293 9.913 9.036 2.763 1.745 3.088 5.074 3.088 6.5C14.001 62.27 11.888 74 17.74 74c5.85 0 9.588-5.475 11.538-6.859 1.95-1.385 6.175-1.47 9.426 0 3.25 1.468 7.963 3.372 10.238.677 2.275-2.696-.162-8.72-2.113-11.732-1.95-3.013-1.137-4.599 1.463-8.086s6.012-6.183 5.687-10.147C53.653 33.89 43.903 35 40.002 35c-4.874 0-6.663-13-15.438-13M131.436 22c3.793 0 4.712 5.073 5.525 9.195.813 4.122 1.3 6.341 4.226 7.452C144.11 39.756 155 40.549 155 45.305c0 4.757-7.15 7.293-9.913 9.036-2.763 1.745-3.088 5.074-3.088 6.5 0 1.428 2.112 13.159-3.738 13.159s-9.588-5.475-11.539-6.859c-1.95-1.385-6.174-1.47-9.425 0-3.25 1.468-7.963 3.372-10.238.677-2.275-2.696.163-8.72 2.113-11.732 1.95-3.013 1.137-4.599-1.463-8.086s-6.012-6.183-5.687-10.147C102.347 33.89 112.096 35 115.998 35c4.875 0 6.662-13 15.438-13"/>
        <path d="M44 28.24c0-4.75 4.109-6.176 12.82-7.126 8.71-.95 9.86-.634 11.833-5.068C70.625 11.611 73.583 1 79.5 1s9.039 10.136 11.011 13.62c1.973 3.484 2.302 5.068 11.67 6.334C111.548 22.222 115 24.598 115 28.24c0 3.643-8.053 8.87-10.519 11.245-2.465 2.376-4.765 4.434-1.644 15.996 2.302 9.344-2.3 11.877-6.08 10.77-3.78-1.11-12.984-7.603-17.257-7.603-4.273 0-16.27 10.78-20.708 7.846-4.438-2.936-1.48-13.39-.986-16.557.493-3.166 1.314-7.443-1.972-9.66C52.546 38.06 44 30.617 44 28.24"/>
    </g>
</svg>
