<svg xmlns="http://www.w3.org/2000/svg" width="157" height="75" viewBox="0 0 157 75">
    <defs>
        <radialGradient id="a" cx="42.072%" cy="34.171%" r="143.386%" fx="42.072%" fy="34.171%" gradientTransform="scale(.98113 1) rotate(59.771 .425 .349)">
            <stop offset="0%" stop-color="#D9EBFF"/>
            <stop offset="100%" stop-color="#1A7CFE"/>
        </radialGradient>
        <filter id="b" width="200%" height="154.5%" x="-50%" y="-27.3%" filterUnits="objectBoundingBox">
            <feGaussianBlur in="SourceGraphic" stdDeviation="1"/>
        </filter>
        <filter id="c" width="228.6%" height="400%" x="-64.3%" y="-150%" filterUnits="objectBoundingBox">
            <feGaussianBlur in="SourceGraphic" stdDeviation="1.5"/>
        </filter>
    </defs>
    <g fill="none" fill-rule="evenodd">
        <g fill="#FFF" stroke="#D6D8DA">
            <path d="M132.436 22c3.793 0 4.712 5.073 5.525 9.195.813 4.122 1.3 6.341 4.226 7.452C145.11 39.756 156 40.549 156 45.305c0 4.757-7.15 7.293-9.913 9.036-2.763 1.745-3.088 5.074-3.088 6.5 0 1.428 2.112 13.159-3.738 13.159s-9.588-5.475-11.539-6.859c-1.95-1.385-6.174-1.47-9.425 0-3.25 1.468-7.963 3.372-10.238.677-2.275-2.696.163-8.72 2.113-11.732 1.95-3.013 1.137-4.599-1.463-8.086s-6.012-6.183-5.687-10.147C103.347 33.89 113.096 35 116.998 35c4.875 0 6.662-13 15.438-13"/>
            <path d="M57.459 21.114c8.465-.95 9.582-.634 11.5-5.068C70.874 11.611 73.748 1 79.5 1c5.75 0 8.784 10.136 10.701 13.62 1.917 3.484 2.237 5.068 11.34 6.334C110.646 22.222 114 24.598 114 28.24c0 3.643-7.826 8.87-10.222 11.245-2.396 2.376-4.632 4.434-1.598 15.996 2.236 9.344-2.235 11.877-5.909 10.77-3.674-1.11-12.618-7.603-16.771-7.603-4.153 0-15.812 10.78-20.125 7.846-4.312-2.936-1.437-13.39-.958-16.557.479-3.166 1.277-7.443-1.916-9.66C53.305 38.06 45 30.617 45 28.24c0-4.75 3.993-6.176 12.459-7.126z"/>
        </g>
        <path fill="#197BFF" d="M20.039 31.195c-.813 4.122-1.3 6.341-4.226 7.452C12.888 39.756 2 40.549 2 45.305c0 4.757 7.15 7.293 9.913 9.036 2.763 1.745 3.088 5.074 3.088 6.5C15.001 62.27 12.888 74 18.74 74c5.85 0 9.588-5.475 11.538-6.859 1.95-1.385 6.175-1.47 9.426 0 3.25 1.468 7.963 3.372 10.238.677 2.275-2.696-.162-8.72-2.113-11.732-1.95-3.013-1.137-4.599 1.463-8.086s6.012-6.183 5.687-10.147c-.325-3.963-5.037-7.916-13.976-2.853-4.221 2.392-6.663-13-15.438-13-3.793 0-4.713 5.073-5.525 9.195z"/>
        <path fill="url(#a)" d="M18.039 27.195c-.813 4.122-1.3 6.341-4.226 7.452C10.888 35.756 0 36.549 0 41.305s7.15 7.293 9.913 9.036c2.763 1.745 3.088 5.074 3.088 6.5C13.001 58.27 10.888 70 16.74 70c5.85 0 9.588-5.475 11.539-6.859 1.95-1.385 6.174-1.47 9.425 0 3.25 1.468 7.963 3.371 10.238.677 2.275-2.696-.163-8.72-2.113-11.732-1.95-3.013-1.137-4.599 1.463-8.086s6.012-6.183 5.687-10.147C52.653 29.89 42.904 31 39.002 31c-4.875 0-6.663-13-15.438-13-3.793 0-4.712 5.073-5.525 9.195z" transform="translate(0 1)"/>
        <path fill="#FFF" fill-rule="nonzero" d="M22.272 23.934a.862.862 0 0 1 1.135-.42c.43.193.621.694.425 1.12l-4.285 9.307a.862.862 0 0 1-1.135.42.842.842 0 0 1-.425-1.12l4.285-9.307z" filter="url(#b)" transform="rotate(-10 26.625 29.437)"/>
        <path fill="#FFF" fill-rule="nonzero" d="M3.406 41L3 39.71 9.594 38 10 39.29z" filter="url(#c)" transform="rotate(-4 20.818 40)"/>
    </g>
</svg>
